<svg viewBox="0 0 640 400" preserveAspectRatio="xMidYMid meet" height="400" width="640" xmlns="http://www.w3.org/2000/svg" xmlns:xlink="http://www.w3.org/1999/xlink">
  <circle cx="320" cy="200" r="200" fill="#046380" data-fill-palette-color="background" id="background"></circle>
  <g id="tight-bounds" transform="matrix(1,0,0,1,234.9401098901099,76.4)">
    <svg viewBox="0 0 170.1197802197802 247.2" height="247.2" width="170.1197802197802">
      <g>
        <svg viewBox="0 0 170.1197802197802 247.2" height="247.2" width="170.1197802197802">
          <g>
            <svg viewBox="0 0 170.1197802197802 247.2" height="247.2" width="170.1197802197802">
              <g id="textblocktransform">
                <svg viewBox="0 0 170.1197802197802 247.2" height="247.2" width="170.1197802197802" id="textblock">
                  <g>
                    <svg viewBox="0 0 170.1197802197802 247.2" height="247.2" width="170.1197802197802">
                      <g transform="matrix(1,0,0,1,0,0)">
                        <svg width="170.1197802197802" viewBox="1.5 -35.70000076293945 25.049999237060547 36.400001525878906" height="247.2" data-palette-color="#ffffff">
                          <path d="M17.1 0.7Q12.45 0.7 8.93-1.55 5.4-3.8 3.45-7.93 1.5-12.05 1.5-17.5L1.5-17.5Q1.5-23 3.55-27.13 5.6-31.25 9.2-33.48 12.8-35.7 17.35-35.7L17.35-35.7Q21.8-35.7 25.55-34.05L25.55-34.05 24.85-27.95Q22.9-28.75 21.43-29.15 19.95-29.55 18.15-29.55L18.15-29.55Q13.45-29.55 10.83-26.35 8.2-23.15 8.2-17.5L8.2-17.5Q8.2-11.75 10.63-8.6 13.05-5.45 17.65-5.45L17.65-5.45Q19.2-5.45 20.45-5.9L20.45-5.9 20.45-11.95 16.45-11.95 16.45-17.55 26.55-17.55 26.55-1.85Q24.85-0.65 22.4 0.03 19.95 0.7 17.1 0.7L17.1 0.7Z" opacity="1" transform="matrix(1,0,0,1,0,0)" fill="#ffffff" class="wordmark-text-0" data-fill-palette-color="primary" id="text-0"></path>
                        </svg>
                      </g>
                    </svg>
                  </g>
                </svg>
              </g>
            </svg>
          </g>
        </svg>
      </g>
    </svg>
  </g>
  <defs></defs>
</svg>
